<svg width="21" height="20" viewBox="0 0 21 20" fill="none" xmlns="http://www.w3.org/2000/svg">
<path d="M9.84571 6.49998C9.84571 4.0147 11.8604 1.99998 14.3457 1.99998C15.0051 1.99998 15.6326 2.14211 16.1982 2.39789C16.3478 2.46554 16.4546 2.60229 16.4841 2.76379C16.5135 2.92529 16.4618 3.09095 16.3457 3.20703L14.0528 5.49996L15.3458 6.79285L17.6387 4.49995C17.7547 4.38387 17.9204 4.33217 18.0819 4.36161C18.2434 4.39106 18.3802 4.4979 18.4478 4.64748C18.7036 5.21307 18.8457 5.8406 18.8457 6.49998C18.8457 8.98526 16.831 11 14.3457 11C13.9651 11 13.595 10.9526 13.2411 10.8633L6.87635 17.3112C6.02885 18.1698 4.66992 18.25 3.72736 17.497C2.64225 16.6302 2.53792 15.0178 3.50228 14.0184L9.92772 7.35908C9.87386 7.08067 9.84571 6.7934 9.84571 6.49998ZM14.3457 2.99998C12.4127 2.99998 10.8457 4.56698 10.8457 6.49998C10.8457 6.80671 10.885 7.10352 10.9587 7.38595C11.0027 7.55456 10.9557 7.73389 10.8347 7.85929L4.2219 14.7127C3.66664 15.2882 3.72671 16.2166 4.3515 16.7157C4.89423 17.1492 5.67669 17.1031 6.16467 16.6087L12.7385 9.94907C12.8718 9.81394 13.0702 9.76603 13.2506 9.82538C13.5945 9.93855 13.9624 9.99998 14.3457 9.99998C16.2787 9.99998 17.8457 8.43297 17.8457 6.49998C17.8457 6.25326 17.8203 6.01279 17.7719 5.78095L15.6993 7.8535C15.5041 8.04876 15.1875 8.04876 14.9922 7.85351L12.9922 5.85353C12.8984 5.75976 12.8457 5.63258 12.8457 5.49997C12.8457 5.36736 12.8984 5.24018 12.9921 5.14641L15.0647 3.07381C14.8329 3.02543 14.5924 2.99998 14.3457 2.99998Z" fill="#595959"/>
</svg>
